<?xml version="1.0" standalone="no"?>
<!DOCTYPE svg PUBLIC "-//W3C//DTD SVG 20010904//EN"
 "http://www.w3.org/TR/2001/REC-SVG-20010904/DTD/svg10.dtd">
<svg version="1.0" xmlns="http://www.w3.org/2000/svg"
 width="1024.000000pt" height="1024.000000pt" viewBox="0 0 1024.000000 1024.000000"
 preserveAspectRatio="xMidYMid meet">
<metadata>
Created by potrace 1.16, written by Peter Selinger 2001-2019
</metadata>
<g transform="translate(0.000000,1024.000000) scale(0.100000,-0.100000)"
fill="#000000" stroke="none">
<path d="M2915 7390 c-99 -4 -325 -8 -503 -9 -308 -1 -323 -2 -342 -21 -25
-25 -26 -60 0 -92 15 -19 32 -27 74 -32 109 -12 238 -81 270 -144 8 -16 20
-67 26 -113 14 -112 4 -2754 -11 -2888 -12 -105 -28 -158 -64 -213 -31 -47
-64 -64 -194 -102 -124 -37 -147 -58 -130 -118 5 -21 15 -39 22 -39 22 -3
1150 -12 1417 -11 292 0 424 12 670 62 275 55 462 119 645 221 151 83 268 175
411 321 214 219 332 431 413 740 42 161 55 276 55 493 0 360 -65 656 -206 940
-108 216 -230 371 -406 518 -297 247 -733 415 -1232 473 -157 18 -642 26 -915
14z m798 -175 c667 -100 1120 -470 1326 -1083 125 -373 116 -1025 -18 -1389
-129 -351 -364 -630 -649 -773 -98 -49 -340 -131 -477 -160 -78 -17 -147 -23
-316 -27 -315 -8 -450 15 -534 89 -86 76 -80 -59 -80 1663 l0 1520 21 46 c37
78 105 116 239 130 99 11 368 2 488 -16z"/>
<path d="M7337 7013 c-19 -22 -22 -64 -7 -93 6 -11 26 -22 48 -26 79 -14 168
-72 189 -122 19 -47 18 -157 -3 -230 -33 -114 -149 -375 -328 -737 -100 -203
-193 -396 -207 -428 -13 -32 -36 -72 -50 -87 -22 -24 -31 -28 -55 -22 -24 7
-37 23 -76 102 -26 52 -62 131 -79 175 -38 95 -249 537 -395 826 -110 219
-150 334 -141 401 9 65 29 85 110 109 84 25 107 42 107 78 0 59 27 56 -540 57
-518 1 -521 1 -535 -20 -33 -46 -11 -100 43 -112 112 -23 114 -24 212 -124 52
-53 118 -130 146 -171 58 -83 166 -294 280 -546 42 -93 129 -276 194 -408 125
-253 245 -543 275 -660 20 -79 23 -283 6 -372 -31 -155 -182 -484 -340 -736
-127 -204 -188 -283 -361 -467 -205 -220 -443 -378 -655 -437 -169 -46 -357 6
-533 150 -138 112 -202 138 -283 117 -56 -15 -129 -88 -147 -146 -27 -92 -8
-198 49 -267 122 -148 516 -175 868 -60 123 40 368 160 487 237 106 70 377
295 400 333 7 10 62 74 124 143 131 146 226 270 312 407 63 99 317 589 420
808 106 226 185 400 202 445 10 25 24 55 32 67 7 12 43 85 79 163 36 78 82
171 103 208 20 37 75 148 122 247 173 370 315 618 465 810 117 150 238 243
343 264 66 13 95 36 95 78 0 42 -37 66 -87 57 -51 -9 -641 -9 -773 1 -89 6
-100 5 -116 -12z"/>
</g>
</svg>
